# xmcd
#
# Track frame offsets: 
#        150
#        17128
#        47957
#        78103
#        93707
#        110957
#        122150
#        146210
#        149436
#        163530
#        185817
#        199014
#        205987
#        219121
#        227272
#        240724
#        250622
#        269672
#        285276
#
# Disc length: 4066 seconds
#
# Revision: 1
# Processed by: cddbd v1.5.2PL0 Copyright (c) Steve Scherf et al.
# Submitted via: ExactAudioCopyFreeDBPlugin 1.0
#
DISCID=1c0fe013
DTITLE=Verschiedene - Milestones Of Legends - Delta Blues - CD03 - Son
DTITLE=House
DYEAR=2018
DGENRE=Blues
TTITLE0=Son House - Levee Camp Blues
TTITLE1=Son House - Government Fleet Blues
TTITLE2=Son House - Walking Blues
TTITLE3=Son House - Shetland Pony Blues
TTITLE4=Son House - Fo' Clock Blues
TTITLE5=Son House - Camp Hollers
TTITLE6=Son House - Delta Blues
TTITLE7=Son House - Special Rider Blues (Test)
TTITLE8=Son House - Special Rider Blues
TTITLE9=Son House - Low Down Dirty Dog Blues
TTITLE10=Son House - Depot Blues
TTITLE11=Son House - Alan Lomax Talking
TTITLE12=Son House - American Defense
TTITLE13=Son House - Am I Right Or Wrong?
TTITLE14=Son House - Walking Blues
TTITLE15=Son House - Country Farm Blues
TTITLE16=Son House - The Pony Blues
TTITLE17=Son House - The Jinx Blues - Part I
TTITLE18=Son House - The Jinx Blues - Part II
EXTD=
EXTT0=
EXTT1=
EXTT2=
EXTT3=
EXTT4=
EXTT5=
EXTT6=
EXTT7=
EXTT8=
EXTT9=
EXTT10=
EXTT11=
EXTT12=
EXTT13=
EXTT14=
EXTT15=
EXTT16=
EXTT17=
EXTT18=
PLAYORDER=
